<svg version="1.1" id="Layer_1" xmlns="http://www.w3.org/2000/svg" xmlns:xlink="http://www.w3.org/1999/xlink" x="0px" y="0px"
	 width="100%" viewBox="0 0 1080 1080" enable-background="new 0 0 1080 1080" xml:space="preserve">
<path fill="#000000" opacity="1.000000" stroke="none"
	d="
M625.000000,1081.000000
	C416.690643,1081.000000 208.881302,1081.000000 1.035974,1081.000000
	C1.035974,721.065552 1.035974,361.131042 1.035974,1.098287
	C360.892914,1.098287 720.785889,1.098287 1080.839355,1.098287
	C1080.839355,360.999939 1080.839355,720.999939 1080.839355,1081.000000
	C929.130615,1081.000000 777.315308,1081.000000 625.000000,1081.000000
M654.596069,97.000008
	C653.511475,96.657440 652.436707,96.279213 651.340820,95.977608
	C631.712341,90.575539 611.749268,86.420792 591.415405,86.171356
	C556.366516,85.741417 521.259766,84.423805 486.628967,92.819191
	C459.870026,99.306221 433.853088,107.681923 409.345032,120.095375
	C395.571381,127.071785 382.450928,135.457947 369.515533,143.940018
	C351.752991,155.587387 335.871948,169.478012 321.232513,184.998062
	C306.507446,200.608887 293.854340,217.565994 282.581482,235.744431
	C271.110596,254.242203 262.090698,273.815033 254.907028,294.311554
	C248.666748,312.116364 244.038940,330.290375 240.859497,348.902191
	C238.061981,365.278229 235.465469,381.597046 235.938995,398.300964
	C236.260010,409.624390 236.159805,420.967041 235.964584,432.296204
	C235.633850,451.489685 241.094849,469.240479 248.841797,486.499725
	C258.354523,507.692993 272.496918,525.696106 288.687225,541.919373
	C303.945709,557.208862 320.368439,571.342834 336.398438,585.853210
	C343.336761,592.133789 350.630341,598.020203 357.656555,604.206055
	C361.854889,607.902222 366.560791,611.311218 369.802368,615.751648
	C380.415802,630.290466 389.273651,645.875671 397.221130,662.095520
	C404.223267,676.386047 405.679779,691.059387 402.757935,706.072388
	C399.354706,723.558716 394.767883,740.824951 390.367828,758.103455
	C387.509613,769.327393 387.544891,780.713013 388.183777,792.042603
	C388.585297,799.163513 391.112274,806.101562 396.131836,811.550537
	C401.177216,817.027588 405.018707,822.967468 405.878845,830.542969
	C406.039062,831.954041 406.335297,833.439026 406.960907,834.694458
	C416.070404,852.975830 431.503204,862.553589 451.293701,862.778259
	C507.115906,863.412048 562.949951,862.999878 618.779297,862.999878
	C620.565430,862.999878 622.351562,862.999878 624.137695,862.999878
	C605.318542,864.306030 586.505005,865.108032 567.695618,865.997742
	C554.997742,866.598450 542.303894,867.290771 529.611450,867.999939
	C512.330872,868.965454 495.045715,869.871277 477.777161,871.022278
	C465.682129,871.828430 453.597626,872.866516 441.540741,874.113342
	C438.814636,874.395325 434.409271,875.432983 433.924377,877.060547
	C432.696228,881.183105 433.131256,885.841248 433.245575,890.276062
	C433.261017,890.875427 435.273865,891.929626 436.340240,891.903137
	C439.939728,891.813721 443.523590,891.151001 447.124054,891.033264
	C459.884338,890.615906 472.652405,890.427551 485.411255,889.976196
	C501.439453,889.409241 517.461304,888.664490 533.486206,888.004700
	C549.843628,887.331177 566.204407,886.730225 582.558228,885.979187
	C594.753174,885.419312 606.941772,884.710510 619.129028,883.996887
	C635.584900,883.033386 652.049377,882.166809 668.484070,880.915527
	C674.791321,880.435364 681.054199,879.146973 687.268677,877.888062
	C688.352966,877.668396 689.777832,875.815063 689.871765,874.623779
	C690.194397,870.533386 689.995667,866.401855 689.995667,861.943970
	C686.584045,861.943970 683.723999,861.943970 680.863953,861.943970
	C681.378113,861.071594 681.980286,861.073059 682.515381,860.884216
	C684.187378,860.294189 685.856201,859.684326 687.487000,858.990234
	C699.590942,853.838196 709.275146,845.665344 713.735291,833.280334
	C716.627380,825.249451 718.839417,817.722290 724.694031,810.726074
	C736.202026,796.974060 734.456543,779.753540 731.606140,763.602112
	C728.382874,745.338013 722.852783,727.493591 718.877014,709.345947
	C715.261047,692.840393 715.844482,676.796143 723.814087,661.087219
	C733.962708,641.083313 744.488770,621.456726 760.292419,605.251526
	C780.617920,584.409668 801.220154,563.836914 821.460022,542.913025
	C827.957336,536.196045 834.096985,529.041199 839.678223,521.548767
	C852.026550,504.971924 863.443726,487.819061 871.271790,468.469574
	C877.929199,452.013763 882.481506,435.138824 882.907837,417.367371
	C883.109680,408.951080 882.618164,400.488220 881.935425,392.087555
	C880.847778,378.705261 879.763000,365.298004 877.908081,352.008606
	C875.015930,331.288391 869.738098,311.090607 863.092712,291.247742
	C855.983337,270.019379 846.296997,249.996063 835.015686,230.712646
	C823.201477,210.518555 808.479675,192.521378 792.228455,175.838287
	C784.354553,167.755066 775.490967,160.596878 766.778259,153.378601
	C751.935791,141.082016 735.714600,130.828613 718.638123,121.906303
	C698.453186,111.359802 677.320374,103.237114 654.596069,97.000008
M487.286102,1016.990784
	C470.457397,1018.329895 453.618286,1019.562561 436.818817,1021.201477
	C435.410126,1021.338928 433.366364,1024.107544 433.175873,1025.826294
	C432.665131,1030.435791 433.167419,1035.146973 432.942322,1039.802124
	C432.789459,1042.962769 433.611755,1044.671265 437.054504,1045.053589
	C444.502075,1045.881104 451.889801,1047.397949 459.351685,1047.912720
	C473.347626,1048.877930 487.373444,1049.497314 501.396820,1049.954956
	C517.485046,1050.479858 533.584534,1050.963989 549.678284,1050.937134
	C570.096619,1050.903076 590.515015,1050.385010 610.931580,1049.982178
	C622.694824,1049.750122 634.468323,1049.583862 646.211853,1048.931763
	C658.829041,1048.231079 671.419922,1047.036133 684.014709,1045.967529
	C687.398315,1045.680420 689.169983,1044.118286 689.087585,1040.198120
	C688.842407,1028.538330 688.999695,1016.870178 688.999695,1005.205322
	C688.999695,1003.497009 688.999695,1001.788696 688.999695,999.968018
	C686.555176,1000.849487 684.978210,1001.745728 683.311340,1001.968323
	C667.820007,1004.036804 652.342468,1006.271484 636.801941,1007.890442
	C623.233887,1009.303833 609.597412,1010.109497 595.977173,1010.960510
	C578.029724,1012.081848 560.072327,1013.057373 542.112122,1013.953674
	C532.023376,1014.457153 521.912537,1014.527771 511.826385,1015.068604
	C503.952423,1015.490784 496.101196,1016.337158 487.286102,1016.990784
M676.431519,908.999573
	C680.106812,908.333191 683.816345,907.805420 687.434875,906.909668
	C688.422058,906.665344 689.810120,905.353149 689.860413,904.465576
	C690.110291,900.058533 689.974426,895.629700 689.974426,892.000305
	C677.391968,892.000305 665.478577,891.765137 653.577820,892.053894
	C634.389587,892.519470 615.211365,893.381165 596.025818,893.978149
	C582.439209,894.400940 568.841187,894.505127 555.260254,895.050415
	C545.560547,895.439941 535.883789,896.373230 526.191467,896.978699
	C509.576416,898.016724 492.940521,898.772766 476.345123,900.057434
	C463.665283,901.038940 451.021118,902.545593 438.396301,904.103943
	C436.507202,904.337158 433.385162,906.013672 433.282501,907.229248
	C432.916199,911.567627 433.535461,916.003235 434.037354,920.372681
	C434.074951,920.700012 436.143921,921.026794 437.242767,920.955566
	C440.509247,920.743958 443.756317,920.145142 447.022614,920.031250
	C467.870697,919.304260 488.723816,918.721191 509.571472,917.982605
	C525.927063,917.403198 542.278442,916.697388 558.629333,915.992981
	C573.139832,915.367798 587.649841,914.719788 602.155090,913.984009
	C613.671021,913.399902 625.185974,912.765137 636.689270,911.975830
	C649.640686,911.087280 662.578491,910.000366 676.431519,908.999573
M637.544312,978.983215
	C632.946960,979.321716 628.354614,979.774231 623.751282,979.974854
	C614.327332,980.385620 604.898499,980.691895 595.469849,980.984619
	C583.542419,981.354858 571.607605,981.535461 559.686584,982.045837
	C548.487610,982.525330 537.302856,983.333374 526.111206,983.986511
	C508.865692,984.993042 491.611298,985.866760 474.376892,987.035889
	C462.944092,987.811462 451.496552,988.696106 440.159912,990.278870
	C437.973236,990.584229 433.134491,989.257080 433.021790,994.295532
	C432.922272,998.745483 433.000946,1003.199463 433.000946,1008.367981
	C437.267883,1007.868530 440.961212,1007.196838 444.675690,1007.046021
	C455.931488,1006.588928 467.196564,1006.364685 478.455994,1005.989258
	C486.886200,1005.708252 495.312683,1005.316162 503.741943,1005.004456
	C522.097839,1004.325684 540.456970,1003.727539 558.809998,1002.979736
	C572.669983,1002.415039 586.524597,1001.707520 600.377930,1000.992493
	C612.227600,1000.380920 624.072937,999.682678 635.918579,998.996277
	C647.107666,998.347961 658.312988,997.875732 669.474976,996.908691
	C675.113647,996.420166 680.737671,995.262390 686.224854,993.849670
	C687.748291,993.457458 689.628845,991.182617 689.833313,989.578674
	C690.349121,985.531799 690.004150,981.375244 690.004150,976.610657
	C685.075134,977.104004 680.703735,977.775696 676.313599,977.936523
	C663.723450,978.397766 651.125671,978.652100 637.544312,978.983215
M572.327759,973.999817
	C581.518127,973.336060 590.703064,972.581177 599.900085,972.027893
	C617.682007,970.958374 635.480835,970.151550 653.252686,968.941833
	C663.383179,968.252258 673.476685,967.005676 683.582031,965.963379
	C688.297729,965.476929 690.922546,963.426941 690.088623,958.057251
	C689.590454,954.849670 689.997253,951.501587 689.997253,947.632202
	C686.053345,948.135559 682.683960,948.816772 679.292236,948.956421
	C660.939819,949.712219 642.581726,950.328247 624.226013,951.004639
	C615.629639,951.321411 607.036133,951.722717 598.438232,951.984253
	C585.678833,952.372559 572.910950,952.530701 560.157349,953.048706
	C548.791809,953.510315 537.440674,954.327759 526.083191,954.987549
	C508.837585,955.989319 491.583557,956.867004 474.349304,958.035950
	C462.906006,958.812134 451.450592,959.709839 440.098022,961.264587
	C437.883728,961.567871 433.135498,960.413391 433.022095,965.354370
	C432.920074,969.799438 433.000641,974.248718 433.000641,979.371765
	C437.486450,978.868835 441.349792,978.208984 445.234161,978.043518
	C455.989441,977.585388 466.754944,977.372986 477.513824,976.991089
	C495.371124,976.357361 513.224304,975.604004 531.083191,975.021118
	C544.506165,974.583069 557.935364,974.333374 572.327759,973.999817
M532.675903,945.999573
	C541.598572,945.666199 550.519836,945.291199 559.444153,945.010010
	C571.356689,944.634583 583.273254,944.384277 595.184631,943.978210
	C601.946655,943.747681 608.711060,943.440308 615.458191,942.946106
	C632.505066,941.697449 649.554382,940.453918 666.578491,938.936401
	C673.544312,938.315430 680.465637,937.095032 687.359741,935.878479
	C688.372314,935.699829 689.802307,934.070129 689.872131,933.033203
	C690.158020,928.790405 689.991455,924.517090 689.991455,920.416992
	C689.044434,920.188477 688.730164,920.039001 688.420715,920.048462
	C667.572388,920.688660 646.723389,921.309631 625.876770,922.003235
	C607.190552,922.625122 588.504883,923.277344 569.822754,924.011719
	C554.968140,924.595642 540.113647,925.220642 525.269104,926.015564
	C508.855652,926.894470 492.446136,927.879944 476.049194,929.023621
	C464.279175,929.844482 452.509460,930.800476 440.792480,932.154175
	C437.976654,932.479553 433.546448,932.012939 433.113647,936.545349
	C432.694611,940.933594 433.022797,945.393127 433.022797,950.096558
	C466.360016,948.712708 499.037781,947.356140 532.675903,945.999573
z"/>
<path fill="#F79B26" opacity="1.000000" stroke="none"
	d="
M655.015625,97.008339
	C677.320374,103.237114 698.453186,111.359802 718.638123,121.906303
	C735.714600,130.828613 751.935791,141.082016 766.778259,153.378601
	C775.490967,160.596878 784.354553,167.755066 792.228455,175.838287
	C808.479675,192.521378 823.201477,210.518555 835.015686,230.712646
	C846.296997,249.996063 855.983337,270.019379 863.092712,291.247742
	C869.738098,311.090607 875.015930,331.288391 877.908081,352.008606
	C879.763000,365.298004 880.847778,378.705261 881.935425,392.087555
	C882.618164,400.488220 883.109680,408.951080 882.907837,417.367371
	C882.481506,435.138824 877.929199,452.013763 871.271790,468.469574
	C863.443726,487.819061 852.026550,504.971924 839.678223,521.548767
	C834.096985,529.041199 827.957336,536.196045 821.460022,542.913025
	C801.220154,563.836914 780.617920,584.409668 760.292419,605.251526
	C744.488770,621.456726 733.962708,641.083313 723.814087,661.087219
	C715.844482,676.796143 715.261047,692.840393 718.877014,709.345947
	C722.852783,727.493591 728.382874,745.338013 731.606140,763.602112
	C734.456543,779.753540 736.202026,796.974060 724.694031,810.726074
	C718.839417,817.722290 716.627380,825.249451 713.735291,833.280334
	C709.275146,845.665344 699.590942,853.838196 687.487000,858.990234
	C685.856201,859.684326 684.187378,860.294189 682.515381,860.884216
	C681.980286,861.073059 681.378113,861.071594 680.863953,861.943970
	C683.723999,861.943970 686.584045,861.943970 689.995667,861.943970
	C689.995667,866.401855 690.194397,870.533386 689.871765,874.623779
	C689.777832,875.815063 688.352966,877.668396 687.268677,877.888062
	C681.054199,879.146973 674.791321,880.435364 668.484070,880.915527
	C652.049377,882.166809 635.584900,883.033386 619.129028,883.996887
	C606.941772,884.710510 594.753174,885.419312 582.558228,885.979187
	C566.204407,886.730225 549.843628,887.331177 533.486206,888.004700
	C517.461304,888.664490 501.439453,889.409241 485.411255,889.976196
	C472.652405,890.427551 459.884338,890.615906 447.124054,891.033264
	C443.523590,891.151001 439.939728,891.813721 436.340240,891.903137
	C435.273865,891.929626 433.261017,890.875427 433.245575,890.276062
	C433.131256,885.841248 432.696228,881.183105 433.924377,877.060547
	C434.409271,875.432983 438.814636,874.395325 441.540741,874.113342
	C453.597626,872.866516 465.682129,871.828430 477.777161,871.022278
	C495.045715,869.871277 512.330872,868.965454 529.611450,867.999939
	C542.303894,867.290771 554.997742,866.598450 567.695618,865.997742
	C586.505005,865.108032 605.318542,864.306030 624.137695,862.999878
	C622.351562,862.999878 620.565430,862.999878 618.779297,862.999878
	C562.949951,862.999878 507.115906,863.412048 451.293701,862.778259
	C431.503204,862.553589 416.070404,852.975830 406.960907,834.694458
	C406.335297,833.439026 406.039062,831.954041 405.878845,830.542969
	C405.018707,822.967468 401.177216,817.027588 396.131836,811.550537
	C391.112274,806.101562 388.585297,799.163513 388.183777,792.042603
	C387.544891,780.713013 387.509613,769.327393 390.367828,758.103455
	C394.767883,740.824951 399.354706,723.558716 402.757935,706.072388
	C405.679779,691.059387 404.223267,676.386047 397.221130,662.095520
	C389.273651,645.875671 380.415802,630.290466 369.802368,615.751648
	C366.560791,611.311218 361.854889,607.902222 357.656555,604.206055
	C350.630341,598.020203 343.336761,592.133789 336.398438,585.853210
	C320.368439,571.342834 303.945709,557.208862 288.687225,541.919373
	C272.496918,525.696106 258.354523,507.692993 248.841797,486.499725
	C241.094849,469.240479 235.633850,451.489685 235.964584,432.296204
	C236.159805,420.967041 236.260010,409.624390 235.938995,398.300964
	C235.465469,381.597046 238.061981,365.278229 240.859497,348.902191
	C244.038940,330.290375 248.666748,312.116364 254.907028,294.311554
	C262.090698,273.815033 271.110596,254.242203 282.581482,235.744431
	C293.854340,217.565994 306.507446,200.608887 321.232513,184.998062
	C335.871948,169.478012 351.752991,155.587387 369.515533,143.940018
	C382.450928,135.457947 395.571381,127.071785 409.345032,120.095375
	C433.853088,107.681923 459.870026,99.306221 486.628967,92.819191
	C521.259766,84.423805 556.366516,85.741417 591.415405,86.171356
	C611.749268,86.420792 631.712341,90.575539 651.340820,95.977608
	C652.436707,96.279213 653.511475,96.657440 655.015625,97.008339
M513.412598,267.942383
	C523.373291,263.741547 533.246826,259.317627 543.312988,255.386810
	C563.698730,247.426224 585.049194,243.038345 606.709351,241.263916
	C618.750305,240.277496 631.236511,241.235611 643.165283,243.339661
	C655.350403,245.488922 666.737305,250.445740 676.183960,259.435455
	C686.174072,268.942322 692.372375,280.380066 694.555542,293.560760
	C696.161865,303.259338 697.002258,313.554596 695.561646,323.191925
	C692.389709,344.411133 681.170898,362.221283 666.683838,377.464722
	C654.068359,390.738831 640.556946,403.344604 626.303345,414.833801
	C607.168152,430.257782 586.884705,444.252106 567.198730,458.999786
	C555.968445,467.412933 544.782959,475.902649 533.887939,484.740814
	C526.725525,490.551086 520.102478,497.028259 513.263489,503.234924
	C497.488525,517.551208 482.057495,532.127808 469.619537,549.656128
	C458.981812,564.647339 451.398590,580.386475 451.937073,599.322876
	C452.391876,615.318176 459.548492,628.268188 470.619141,638.774597
	C480.401703,648.058533 492.561798,654.060303 505.326904,658.689209
	C521.526489,664.563599 538.411499,667.230347 555.402771,667.686829
	C569.171509,668.056824 582.961670,665.733643 595.684509,659.163574
	C595.758850,654.197632 592.263245,644.601807 588.723145,640.221008
	C580.406372,629.928955 571.721008,619.899719 564.002563,609.175476
	C560.645874,604.511536 556.580200,597.855591 557.543579,593.047485
	C560.600403,577.790527 568.429626,564.231079 579.457458,553.167847
	C590.017456,542.573792 601.067505,532.352051 612.737061,523.009521
	C627.366516,511.297424 642.560608,500.229248 658.036743,489.652435
	C675.151489,477.955780 693.242493,467.672394 710.195984,455.759705
	C725.044250,445.326263 739.374634,434.025146 753.039551,422.083954
	C762.302673,413.989380 770.488892,404.509735 778.317139,394.961212
	C790.390930,380.234131 800.104309,364.176788 805.379578,345.475555
	C810.250488,328.207703 811.277527,310.802002 807.569641,293.616180
	C801.453796,265.269623 787.162659,240.726013 768.306519,218.921036
	C756.588257,205.370056 741.883545,195.314484 726.128845,187.172974
	C706.048645,176.796234 684.810364,169.448639 662.584717,164.694733
	C641.360413,160.155029 619.935730,157.672592 598.356567,157.227234
	C585.931458,156.970795 573.439514,158.797134 561.012939,160.039398
	C542.379944,161.902100 524.134277,165.860992 506.450165,171.974091
	C494.214386,176.203812 482.171021,181.035294 470.207031,185.996719
	C447.265961,195.510284 425.938507,208.009079 405.980530,222.694153
	C394.654633,231.027771 383.795868,240.064621 373.269684,249.397186
	C363.094604,258.418457 352.995361,267.674835 343.990356,277.827972
	C332.972168,290.250946 322.854401,303.508759 312.846741,316.782166
	C301.276459,332.128204 291.096069,348.357971 285.505737,366.996368
	C281.793182,379.374207 281.859100,391.182281 290.469238,401.980194
	C299.566193,413.388550 310.528503,422.369690 323.416351,429.110931
	C338.204803,436.846283 353.724060,441.327118 370.468811,443.336029
	C384.891083,445.066315 397.757690,442.106537 409.951965,435.818420
	C421.967133,429.622681 432.711975,421.358246 439.424591,409.038177
	C443.648926,401.285004 446.818420,393.035797 444.507843,384.183807
	C441.989807,374.537170 434.708923,368.700226 425.483215,366.164490
	C416.454742,363.682953 407.072723,362.487640 397.770660,360.713409
	C397.685699,361.072906 397.649719,360.320923 398.001190,359.872894
	C403.617645,352.713959 408.915222,345.256775 415.042755,338.560516
	C421.057800,331.987213 427.642609,325.854431 434.489197,320.141693
	C444.943970,311.418243 455.319611,302.428589 466.675690,294.999176
	C481.520203,285.287598 497.287964,276.987183 513.412598,267.942383
M536.342407,800.013489
	C539.952576,800.853210 543.526550,801.930115 547.179932,802.486328
	C556.554932,803.913696 565.960815,805.222961 575.308594,802.177307
	C596.001892,795.434937 613.828308,784.123535 628.374146,767.978882
	C635.041992,760.578064 638.393188,751.233887 631.088013,740.964294
	C625.314819,732.848267 617.062134,729.296997 608.429688,726.028137
	C596.340942,721.450562 583.750732,719.047485 570.893250,718.022888
	C565.476746,717.591248 559.909302,716.436707 554.652832,717.225586
	C546.707764,718.417969 538.651001,720.217468 531.221619,723.202454
	C517.271606,728.807373 505.421417,737.450867 499.123932,751.772705
	C495.489258,760.038696 494.093872,768.845825 499.530884,776.827881
	C508.169891,789.510864 520.735840,796.580017 536.342407,800.013489
z"/>
<path fill="#F79B26" opacity="1.000000" stroke="none"
	d="
M487.763000,1016.992920
	C496.101196,1016.337158 503.952423,1015.490784 511.826385,1015.068604
	C521.912537,1014.527771 532.023376,1014.457153 542.112122,1013.953674
	C560.072327,1013.057373 578.029724,1012.081848 595.977173,1010.960510
	C609.597412,1010.109497 623.233887,1009.303833 636.801941,1007.890442
	C652.342468,1006.271484 667.820007,1004.036804 683.311340,1001.968323
	C684.978210,1001.745728 686.555176,1000.849487 688.999695,999.968018
	C688.999695,1001.788696 688.999695,1003.497009 688.999695,1005.205322
	C688.999695,1016.870178 688.842407,1028.538330 689.087585,1040.198120
	C689.169983,1044.118286 687.398315,1045.680420 684.014709,1045.967529
	C671.419922,1047.036133 658.829041,1048.231079 646.211853,1048.931763
	C634.468323,1049.583862 622.694824,1049.750122 610.931580,1049.982178
	C590.515015,1050.385010 570.096619,1050.903076 549.678284,1050.937134
	C533.584534,1050.963989 517.485046,1050.479858 501.396820,1049.954956
	C487.373444,1049.497314 473.347626,1048.877930 459.351685,1047.912720
	C451.889801,1047.397949 444.502075,1045.881104 437.054504,1045.053589
	C433.611755,1044.671265 432.789459,1042.962769 432.942322,1039.802124
	C433.167419,1035.146973 432.665131,1030.435791 433.175873,1025.826294
	C433.366364,1024.107544 435.410126,1021.338928 436.818817,1021.201477
	C453.618286,1019.562561 470.457397,1018.329895 487.763000,1016.992920
z"/>
<path fill="#F79B26" opacity="1.000000" stroke="none"
	d="
M675.976868,908.999634
	C662.578491,910.000366 649.640686,911.087280 636.689270,911.975830
	C625.185974,912.765137 613.671021,913.399902 602.155090,913.984009
	C587.649841,914.719788 573.139832,915.367798 558.629333,915.992981
	C542.278442,916.697388 525.927063,917.403198 509.571472,917.982605
	C488.723816,918.721191 467.870697,919.304260 447.022614,920.031250
	C443.756317,920.145142 440.509247,920.743958 437.242767,920.955566
	C436.143921,921.026794 434.074951,920.700012 434.037354,920.372681
	C433.535461,916.003235 432.916199,911.567627 433.282501,907.229248
	C433.385162,906.013672 436.507202,904.337158 438.396301,904.103943
	C451.021118,902.545593 463.665283,901.038940 476.345123,900.057434
	C492.940521,898.772766 509.576416,898.016724 526.191467,896.978699
	C535.883789,896.373230 545.560547,895.439941 555.260254,895.050415
	C568.841187,894.505127 582.439209,894.400940 596.025818,893.978149
	C615.211365,893.381165 634.389587,892.519470 653.577820,892.053894
	C665.478577,891.765137 677.391968,892.000305 689.974426,892.000305
	C689.974426,895.629700 690.110291,900.058533 689.860413,904.465576
	C689.810120,905.353149 688.422058,906.665344 687.434875,906.909668
	C683.816345,907.805420 680.106812,908.333191 675.976868,908.999634
z"/>
<path fill="#F79B26" opacity="1.000000" stroke="none"
	d="
M638.037598,978.985474
	C651.125671,978.652100 663.723450,978.397766 676.313599,977.936523
	C680.703735,977.775696 685.075134,977.104004 690.004150,976.610657
	C690.004150,981.375244 690.349121,985.531799 689.833313,989.578674
	C689.628845,991.182617 687.748291,993.457458 686.224854,993.849670
	C680.737671,995.262390 675.113647,996.420166 669.474976,996.908691
	C658.312988,997.875732 647.107666,998.347961 635.918579,998.996277
	C624.072937,999.682678 612.227600,1000.380920 600.377930,1000.992493
	C586.524597,1001.707520 572.669983,1002.415039 558.809998,1002.979736
	C540.456970,1003.727539 522.097839,1004.325684 503.741943,1005.004456
	C495.312683,1005.316162 486.886200,1005.708252 478.455994,1005.989258
	C467.196564,1006.364685 455.931488,1006.588928 444.675690,1007.046021
	C440.961212,1007.196838 437.267883,1007.868530 433.000946,1008.367981
	C433.000946,1003.199463 432.922272,998.745483 433.021790,994.295532
	C433.134491,989.257080 437.973236,990.584229 440.159912,990.278870
	C451.496552,988.696106 462.944092,987.811462 474.376892,987.035889
	C491.611298,985.866760 508.865692,984.993042 526.111206,983.986511
	C537.302856,983.333374 548.487610,982.525330 559.686584,982.045837
	C571.607605,981.535461 583.542419,981.354858 595.469849,980.984619
	C604.898499,980.691895 614.327332,980.385620 623.751282,979.974854
	C628.354614,979.774231 632.946960,979.321716 638.037598,978.985474
z"/>
<path fill="#F79B26" opacity="1.000000" stroke="none"
	d="
M571.844727,973.999878
	C557.935364,974.333374 544.506165,974.583069 531.083191,975.021118
	C513.224304,975.604004 495.371124,976.357361 477.513824,976.991089
	C466.754944,977.372986 455.989441,977.585388 445.234161,978.043518
	C441.349792,978.208984 437.486450,978.868835 433.000641,979.371765
	C433.000641,974.248718 432.920074,969.799438 433.022095,965.354370
	C433.135498,960.413391 437.883728,961.567871 440.098022,961.264587
	C451.450592,959.709839 462.906006,958.812134 474.349304,958.035950
	C491.583557,956.867004 508.837585,955.989319 526.083191,954.987549
	C537.440674,954.327759 548.791809,953.510315 560.157349,953.048706
	C572.910950,952.530701 585.678833,952.372559 598.438232,951.984253
	C607.036133,951.722717 615.629639,951.321411 624.226013,951.004639
	C642.581726,950.328247 660.939819,949.712219 679.292236,948.956421
	C682.683960,948.816772 686.053345,948.135559 689.997253,947.632202
	C689.997253,951.501587 689.590454,954.849670 690.088623,958.057251
	C690.922546,963.426941 688.297729,965.476929 683.582031,965.963379
	C673.476685,967.005676 663.383179,968.252258 653.252686,968.941833
	C635.480835,970.151550 617.682007,970.958374 599.900085,972.027893
	C590.703064,972.581177 581.518127,973.336060 571.844727,973.999878
z"/>
<path fill="#F79B26" opacity="1.000000" stroke="none"
	d="
M532.195740,945.999634
	C499.037781,947.356140 466.360016,948.712708 433.022797,950.096558
	C433.022797,945.393127 432.694611,940.933594 433.113647,936.545349
	C433.546448,932.012939 437.976654,932.479553 440.792480,932.154175
	C452.509460,930.800476 464.279175,929.844482 476.049194,929.023621
	C492.446136,927.879944 508.855652,926.894470 525.269104,926.015564
	C540.113647,925.220642 554.968140,924.595642 569.822754,924.011719
	C588.504883,923.277344 607.190552,922.625122 625.876770,922.003235
	C646.723389,921.309631 667.572388,920.688660 688.420715,920.048462
	C688.730164,920.039001 689.044434,920.188477 689.991455,920.416992
	C689.991455,924.517090 690.158020,928.790405 689.872131,933.033203
	C689.802307,934.070129 688.372314,935.699829 687.359741,935.878479
	C680.465637,937.095032 673.544312,938.315430 666.578491,938.936401
	C649.554382,940.453918 632.505066,941.697449 615.458191,942.946106
	C608.711060,943.440308 601.946655,943.747681 595.184631,943.978210
	C583.273254,944.384277 571.356689,944.634583 559.444153,945.010010
	C550.519836,945.291199 541.598572,945.666199 532.195740,945.999634
z"/>
<path fill="#000000" opacity="1.000000" stroke="none"
	d="
M513.035583,268.011047
	C497.287964,276.987183 481.520203,285.287598 466.675690,294.999176
	C455.319611,302.428589 444.943970,311.418243 434.489197,320.141693
	C427.642609,325.854431 421.057800,331.987213 415.042755,338.560516
	C408.915222,345.256775 403.617645,352.713959 398.001190,359.872894
	C397.649719,360.320923 397.685699,361.072906 397.770660,360.713409
	C407.072723,362.487640 416.454742,363.682953 425.483215,366.164490
	C434.708923,368.700226 441.989807,374.537170 444.507843,384.183807
	C446.818420,393.035797 443.648926,401.285004 439.424591,409.038177
	C432.711975,421.358246 421.967133,429.622681 409.951965,435.818420
	C397.757690,442.106537 384.891083,445.066315 370.468811,443.336029
	C353.724060,441.327118 338.204803,436.846283 323.416351,429.110931
	C310.528503,422.369690 299.566193,413.388550 290.469238,401.980194
	C281.859100,391.182281 281.793182,379.374207 285.505737,366.996368
	C291.096069,348.357971 301.276459,332.128204 312.846741,316.782166
	C322.854401,303.508759 332.972168,290.250946 343.990356,277.827972
	C352.995361,267.674835 363.094604,258.418457 373.269684,249.397186
	C383.795868,240.064621 394.654633,231.027771 405.980530,222.694153
	C425.938507,208.009079 447.265961,195.510284 470.207031,185.996719
	C482.171021,181.035294 494.214386,176.203812 506.450165,171.974091
	C524.134277,165.860992 542.379944,161.902100 561.012939,160.039398
	C573.439514,158.797134 585.931458,156.970795 598.356567,157.227234
	C619.935730,157.672592 641.360413,160.155029 662.584717,164.694733
	C684.810364,169.448639 706.048645,176.796234 726.128845,187.172974
	C741.883545,195.314484 756.588257,205.370056 768.306519,218.921036
	C787.162659,240.726013 801.453796,265.269623 807.569641,293.616180
	C811.277527,310.802002 810.250488,328.207703 805.379578,345.475555
	C800.104309,364.176788 790.390930,380.234131 778.317139,394.961212
	C770.488892,404.509735 762.302673,413.989380 753.039551,422.083954
	C739.374634,434.025146 725.044250,445.326263 710.195984,455.759705
	C693.242493,467.672394 675.151489,477.955780 658.036743,489.652435
	C642.560608,500.229248 627.366516,511.297424 612.737061,523.009521
	C601.067505,532.352051 590.017456,542.573792 579.457458,553.167847
	C568.429626,564.231079 560.600403,577.790527 557.543579,593.047485
	C556.580200,597.855591 560.645874,604.511536 564.002563,609.175476
	C571.721008,619.899719 580.406372,629.928955 588.723145,640.221008
	C592.263245,644.601807 595.758850,654.197632 595.684509,659.163574
	C582.961670,665.733643 569.171509,668.056824 555.402771,667.686829
	C538.411499,667.230347 521.526489,664.563599 505.326904,658.689209
	C492.561798,654.060303 480.401703,648.058533 470.619141,638.774597
	C459.548492,628.268188 452.391876,615.318176 451.937073,599.322876
	C451.398590,580.386475 458.981812,564.647339 469.619537,549.656128
	C482.057495,532.127808 497.488525,517.551208 513.263489,503.234924
	C520.102478,497.028259 526.725525,490.551086 533.887939,484.740814
	C544.782959,475.902649 555.968445,467.412933 567.198730,458.999786
	C586.884705,444.252106 607.168152,430.257782 626.303345,414.833801
	C640.556946,403.344604 654.068359,390.738831 666.683838,377.464722
	C681.170898,362.221283 692.389709,344.411133 695.561646,323.191925
	C697.002258,313.554596 696.161865,303.259338 694.555542,293.560760
	C692.372375,280.380066 686.174072,268.942322 676.183960,259.435455
	C666.737305,250.445740 655.350403,245.488922 643.165283,243.339661
	C631.236511,241.235611 618.750305,240.277496 606.709351,241.263916
	C585.049194,243.038345 563.698730,247.426224 543.312988,255.386810
	C533.246826,259.317627 523.373291,263.741547 513.035583,268.011047
z"/>
<path fill="#000000" opacity="1.000000" stroke="none"
	d="
M535.918701,800.014404
	C520.735840,796.580017 508.169891,789.510864 499.530884,776.827881
	C494.093872,768.845825 495.489258,760.038696 499.123932,751.772705
	C505.421417,737.450867 517.271606,728.807373 531.221619,723.202454
	C538.651001,720.217468 546.707764,718.417969 554.652832,717.225586
	C559.909302,716.436707 565.476746,717.591248 570.893250,718.022888
	C583.750732,719.047485 596.340942,721.450562 608.429688,726.028137
	C617.062134,729.296997 625.314819,732.848267 631.088013,740.964294
	C638.393188,751.233887 635.041992,760.578064 628.374146,767.978882
	C613.828308,784.123535 596.001892,795.434937 575.308594,802.177307
	C565.960815,805.222961 556.554932,803.913696 547.179932,802.486328
	C543.526550,801.930115 539.952576,800.853210 535.918701,800.014404
z"/>
</svg>